<?xml version="1.0" encoding="UTF-8"?>
<svg width="24px" height="24px" viewBox="0 0 24 24" version="1.1" xmlns="http://www.w3.org/2000/svg" xmlns:xlink="http://www.w3.org/1999/xlink">
    <title>icon / play / light</title>
    <g id="icon-/-play-/-light" stroke="none" stroke-width="1" fill="none" fill-rule="evenodd">
        <path d="M7.56396232,4 C9.18930336,4.80393334 10.7097799,5.73893821 12.1865819,6.72637993 C12.9380852,7.20699158 13.6371517,7.74003093 14.3711761,8.23812153 C15.0877215,8.7536682 15.7780486,9.30420938 16.4858545,9.82848637 L17.7354622,10.7635187 L16.512073,12.039299 C15.9615775,12.6160586 15.34986,13.1403356 14.7731462,13.6821373 C14.1876471,14.223939 13.6109333,14.7744345 12.9992615,15.2812783 L11.1816566,16.8366761 L9.30290281,18.3222038 L7.17073627,20 L7.03091931,17.4396541 C6.99596552,16.7231086 7.01344264,16.0065632 7.00470408,15.2900177 C6.98722742,14.5734723 7.0221812,13.8569268 7.04839643,13.1315962 C7.05713453,12.4150507 7.12704209,11.6897658 7.17073627,10.9644809 C7.23190344,10.2391959 7.31928447,9.51391102 7.43288392,8.7886261 L7.60765512,8.77114715 L8.53392509,17.2823435 L8.29798671,17.1949488 L11.8545276,13.9967127 L15.4372548,10.8334345 L15.4372548,11.0606151 L7.45910234,4.13107657 L7.56396232,4 Z" id="Path" fill="#FFFFFF" fill-rule="nonzero"></path>
    </g>
</svg>